<?xml version="1.0" encoding="UTF-8" standalone="no"?>
<svg
   width="180"
   height="100"
   viewBox="0 0 47.625001 26.458333"
   version="1.1"
   id="svg8"
   sodipodi:docname="about-tommy.svg"
   inkscape:version="1.2 (56b05e47e7, 2022-06-09, custom)"
   inkscape:export-filename="../e1bcfef7/about-tommy.png"
   inkscape:export-xdpi="96"
   inkscape:export-ydpi="96"
   xmlns:inkscape="http://www.inkscape.org/namespaces/inkscape"
   xmlns:sodipodi="http://sodipodi.sourceforge.net/DTD/sodipodi-0.dtd"
   xmlns="http://www.w3.org/2000/svg"
   xmlns:svg="http://www.w3.org/2000/svg"
   xmlns:rdf="http://www.w3.org/1999/02/22-rdf-syntax-ns#"
   xmlns:cc="http://creativecommons.org/ns#"
   xmlns:dc="http://purl.org/dc/elements/1.1/">
  <defs
     id="defs2" />
  <sodipodi:namedview
     id="base"
     pagecolor="#ffffff"
     bordercolor="#666666"
     borderopacity="1.0"
     inkscape:pageopacity="0.0"
     inkscape:pageshadow="2"
     inkscape:zoom="2.8"
     inkscape:cx="110.71429"
     inkscape:cy="56.607143"
     inkscape:document-units="mm"
     inkscape:current-layer="layer1"
     inkscape:document-rotation="0"
     showgrid="false"
     units="px"
     inkscape:window-width="1854"
     inkscape:window-height="1016"
     inkscape:window-x="0"
     inkscape:window-y="0"
     inkscape:window-maximized="1"
     inkscape:showpageshadow="0"
     inkscape:pagecheckerboard="1"
     inkscape:deskcolor="#d1d1d1" />
  <metadata
     id="metadata5">
    <rdf:RDF>
      <cc:Work
         rdf:about="">
        <dc:format>image/svg+xml</dc:format>
        <dc:type
           rdf:resource="http://purl.org/dc/dcmitype/StillImage" />
        <dc:title />
      </cc:Work>
    </rdf:RDF>
  </metadata>
  <g
     inkscape:label="Calque 1"
     inkscape:groupmode="layer"
     id="layer1">
    <path
       style="fill:#000000;stroke-width:0.0441062"
       d="m 23.349641,26.392365 c -0.26192,-0.0936 -0.49707,-0.26063 -0.63025,-0.44766 -0.2234,-0.31373 -0.22898,-0.35777 -0.3137,-2.4726 -0.1468,-3.66487 -0.1749,-5.05542 -0.19828,-9.81362 -0.0127,-2.59565 -0.0336,-4.8047295 -0.0463,-4.9090595 -0.0178,-0.14642 -0.0465,-0.1986 -0.12568,-0.2287 -0.061,-0.0232 -0.74883,-0.0143 -1.69753,0.022 -0.87722,0.0335 -1.61864,0.0538 -1.64759,0.0449 -0.029,-0.009 -0.10571,-0.0276 -0.17055,-0.0418 -0.16621,-0.0363 -0.37733,-0.22628 -0.48423,-0.43581 -0.13442,-0.26349 -0.10029,-0.63338 0.0791,-0.85731 0.0732,-0.0913 1.00477,-1.00545 2.07023,-2.03134 3.1527,-3.03566 2.99795,-2.90795 3.24118,-2.67492 0.21399,0.20501 0.18107,0.32354 -0.20135,0.725 -0.18194,0.19099 -0.33079,0.37088 -0.33079,0.39976 0,0.0289 0.0794,0.19632 0.17642,0.3721 0.19114,0.34625 0.20958,0.44795 0.11439,0.6307 -0.0341,0.0655 -0.49052,0.5249 -1.01421,1.02089 -0.87745,0.83101 -1.04935,1.02303 -0.9789,1.09348 0.0143,0.0143 0.53706,0.005 1.16182,-0.0215 0.91442,-0.0382 1.15311,-0.0364 1.22412,0.009 0.0812,0.0522 0.0883,0.1056 0.0891,0.6688 0.001,0.7021 0.0541,0.93437 0.33954,1.48448 0.19029,0.3668 0.38225,0.60512 0.48741,0.60512 0.0489,0 0.0875,-0.14257 0.15799,-0.58392 0.10271,-0.64291 0.16291,-0.76894 0.41269,-0.86401 0.11835,-0.045 0.19538,-0.0475 0.33225,-0.0107 0.22364,0.0602 0.29853,0.20689 0.33941,0.66467 0.031,0.34746 0.14456,0.82501 0.20504,0.86238 0.0535,0.0331 0.38235,-0.4737 0.57056,-0.87919 0.21344,-0.45987 0.26371,-0.71163 0.26371,-1.32078 0,-0.59424 0.0431,-0.69129 0.30731,-0.69129 0.42298,0 1.005,0.28698 1.32963,0.6556 0.50112,0.56905 0.95489,2.03965 1.11783,3.6226895 0.16225,1.5765 0.18577,3.2844 0.0659,4.78552 -0.0532,0.66613 -0.10883,0.87526 -0.2815,1.05835 -0.15612,0.16553 -0.44972,0.26396 -0.66622,0.22334 -0.18942,-0.0355 -0.35623,0.0335 -0.38815,0.16074 -0.0143,0.057 -0.0569,1.11534 -0.0947,2.35187 -0.13501,4.41594 -0.19268,5.71834 -0.26378,5.95697 -0.23497,0.78867 -1.13048,1.16494 -1.84801,0.77648 -0.23661,-0.1281 -0.46929,-0.38521 -0.58946,-0.65137 -0.0726,-0.16079 -0.0797,-0.48644 -0.10018,-4.6057 -0.0121,-2.43796 -0.0394,-4.46837 -0.0607,-4.51201 -0.0696,-0.14293 -0.17961,-0.067 -0.21171,0.14608 -0.0164,0.10885 -0.0313,2.10465 -0.0331,4.43511 -0.004,4.79113 0.0137,4.53844 -0.33899,4.91552 -0.35325,0.37765 -0.91186,0.52504 -1.36976,0.3614 z m 2.03474,-11.92249 c 0.0858,-0.0753 0.15591,-0.17081 0.15591,-0.21228 0,-0.0903 -0.20464,-0.29107 -0.33751,-0.33112 -0.12568,-0.0379 -0.31571,0.12879 -0.34978,0.30681 -0.0225,0.11742 -0.005,0.14838 0.14287,0.25361 0.0927,0.0659 0.1829,0.11987 0.20053,0.11987 0.0176,0 0.10223,-0.0616 0.18798,-0.13689 z m 0.0951,-1.63838 c 0.10473,-0.0788 0.1906,-0.1632 0.19083,-0.18745 7.5e-4,-0.0739 -0.33542,-0.28669 -0.45291,-0.28669 -0.12646,0 -0.3387,0.22322 -0.3387,0.35623 0,0.1217 0.15673,0.26125 0.2934,0.26125 0.0643,0 0.20266,-0.0645 0.30738,-0.14334 z m -0.0475,-1.59685 c 0.14646,-0.14645 0.13662,-0.23888 -0.0517,-0.48554 l -0.15999,-0.20952 -0.10601,0.126 c -0.24094,0.28636 -0.24801,0.30487 -0.17232,0.45124 0.12637,0.24436 0.31754,0.29033 0.49004,0.11782 z m -0.56324,-3.4889795 c -0.0661,-0.0359 -0.14053,-0.10324 -0.1654,-0.14971 -0.0638,-0.11911 -0.0561,-0.37572 0.0163,-0.54905 0.0879,-0.21049 0.22604,-0.29103 0.49895,-0.29103 0.19205,0 0.25599,0.0214 0.37075,0.12391 0.11237,0.1004 0.14281,0.16689 0.16045,0.35045 0.0317,0.33037 -0.0102,0.44679 -0.18762,0.52093 -0.19397,0.081 -0.53898,0.0783 -0.69341,-0.005 z m 0.0304,-1.60831 c -0.55585,-0.0745 -1.11372,-0.36052 -1.40567,-0.7208 -0.21558,-0.26605 -0.22729,-0.34368 -0.0931,-0.61789 0.13419,-0.27428 0.12297,-0.38425 -0.0708,-0.69303 -0.19824,-0.31596 -0.17635,-0.45758 0.11522,-0.74553 0.3226,-0.31859 0.36219,-0.44551 0.24298,-0.77896 -0.14084,-0.39398 -0.14902,-0.37675 0.22055,-0.46439 0.93917,-0.22272 2.01856,-0.20329 2.99913,0.054 0.27341,0.0717 0.50394,0.13042 0.51229,0.13042 0.008,0 -0.007,-0.0478 -0.0332,-0.10613 -0.0761,-0.16706 -0.58293,-0.37561 -1.15567,-0.47555 -0.67248,-0.11734 -1.77877,-0.0936 -2.29631,0.0492 -0.43895,0.12114 -0.55347,0.17993 -0.90838,0.46633 -0.26717,0.2156 -0.5655,0.40001 -0.59393,0.36713 -0.007,-0.008 -0.0446,-0.0778 -0.0841,-0.15543 -0.21825,-0.42925 0.13243,-1.19971 0.79721,-1.75150001 0.58327,-0.48415 1.20957,-0.69503999542 2.06408,-0.69503999542 0.96944,0 1.65168,0.26141999542 2.25333,0.86342999542 0.39767,0.39789001 0.60381,0.75643001 0.68253,1.18710001 0.0809,0.4427 7.5e-4,0.58368 -0.39197,0.68944 -0.26729,0.072 -0.29136,0.14868 -0.20524,0.6542 0.10969,0.64396 0.0283,1.103 -0.28013,1.58023 -0.20058,0.31033 -0.5675,0.68508 -0.8456,0.86364 -0.38079,0.2445 -1.00951,0.36798 -1.52324,0.29917 z m 1.09549,-1.22668 c 0.0575,-0.0478 0.061,-0.0748 0.0182,-0.14334 -0.0483,-0.0774 -0.11079,-0.0845 -0.74533,-0.0845 -0.6682,0 -0.69503,0.003 -0.76208,0.0992 -0.0623,0.089 -0.0625,0.10432 -0.002,0.14863 0.10157,0.0743 1.3985,0.0568 1.49112,-0.0201 z m -0.49597,-3.65734 c 0.22026,-0.15018 0.43855,-0.34217001 0.43846,-0.38564001 -1.2e-4,-0.0899 -0.42016,-0.32967 -0.62711,-0.35801 -0.17206,-0.0236 -0.24932,-0.008 -0.44509,0.0874 -0.13029,0.0638 -0.27467,0.15764 -0.32084,0.20866 -0.0831,0.0919 -0.0826,0.0938 0.0481,0.19929001 0.19114,0.15415 0.55036,0.32584 0.68104,0.32551 0.0619,-1.3e-4 0.16338,-0.0349 0.22541,-0.0772 z"
       id="path246" />
  </g>
</svg>
