<?xml version="1.0" encoding="UTF-8" standalone="no"?>
<svg
   width="180"
   height="100"
   viewBox="0 0 47.625001 26.458333"
   version="1.1"
   id="svg8"
   sodipodi:docname="about-nico.svg"
   inkscape:version="1.2 (56b05e47e7, 2022-06-09, custom)"
   inkscape:export-filename="../46b89585/about-nico.png"
   inkscape:export-xdpi="96"
   inkscape:export-ydpi="96"
   xmlns:inkscape="http://www.inkscape.org/namespaces/inkscape"
   xmlns:sodipodi="http://sodipodi.sourceforge.net/DTD/sodipodi-0.dtd"
   xmlns="http://www.w3.org/2000/svg"
   xmlns:svg="http://www.w3.org/2000/svg"
   xmlns:rdf="http://www.w3.org/1999/02/22-rdf-syntax-ns#"
   xmlns:cc="http://creativecommons.org/ns#"
   xmlns:dc="http://purl.org/dc/elements/1.1/">
  <defs
     id="defs2" />
  <sodipodi:namedview
     id="base"
     pagecolor="#ffffff"
     bordercolor="#666666"
     borderopacity="1.0"
     inkscape:pageopacity="0.0"
     inkscape:pageshadow="2"
     inkscape:zoom="2.8"
     inkscape:cx="161.42857"
     inkscape:cy="95.178572"
     inkscape:document-units="mm"
     inkscape:current-layer="layer1"
     inkscape:document-rotation="0"
     showgrid="false"
     units="px"
     inkscape:window-width="1854"
     inkscape:window-height="1016"
     inkscape:window-x="0"
     inkscape:window-y="0"
     inkscape:window-maximized="1"
     inkscape:showpageshadow="0"
     inkscape:pagecheckerboard="1"
     inkscape:deskcolor="#d1d1d1" />
  <metadata
     id="metadata5">
    <rdf:RDF>
      <cc:Work
         rdf:about="">
        <dc:format>image/svg+xml</dc:format>
        <dc:type
           rdf:resource="http://purl.org/dc/dcmitype/StillImage" />
        <dc:title />
      </cc:Work>
    </rdf:RDF>
  </metadata>
  <g
     inkscape:label="Calque 1"
     inkscape:groupmode="layer"
     id="layer1">
    <path
       style="fill:#000000;stroke-width:0.0210183"
       d="m 22.214617,26.428766 c -0.58747,-0.12954 -1.00213,-0.55865 -1.08239,-1.12011 -0.0421,-0.29475 0.23168,-3.90975 0.64036,-8.45412 0.22984,-2.55579 0.25574,-3.04377 0.27501,-5.18102 0.0142,-1.58038 -0.0106,-3.3188498 -0.0484,-3.3865798 -0.0645,-0.11544 -0.0758,-0.10569 -0.75789,0.65088 -0.35599,0.39487 -0.69972,0.78415 -0.76384,0.86507 -0.14195,0.17915 -0.36366,0.3892198 -0.48504,0.4595898 -0.14508,0.0841 -0.32016,0.12556 -0.46668,0.11051 -0.27998,-0.0287 -0.52414,-0.21374 -0.86151,-0.6527598 -0.40829,-0.53132 -1.16506,-1.58862 -1.18902,-1.66121 -0.0208,-0.063 -0.0195,-0.0842 0.008,-0.12549 0.0482,-0.0736 0.1632,-0.10731 0.68586,-0.20131 0.2601,-0.0468 0.55169,-0.10367 0.64797,-0.12642 0.20841,-0.0492 0.35632,-0.0526 0.45724,-0.0105 0.0407,0.017 0.12873,0.0879 0.19568,0.15764 0.12549,0.13066 0.1857,0.15376 0.27549,0.10571 0.0467,-0.025 0.71462,-0.76883 0.71462,-0.79587 0,-0.0103 -0.0131,-0.0296 -0.0292,-0.0429 -0.0223,-0.0185 -0.1129,-0.0113 -0.38358,0.0305 -0.51862,0.0801 -5.63818,1.03939 -6.29765,1.17999 -0.32289,0.0688 -0.35878,0.0727 -0.42862,0.0461 -0.13075,-0.0498 -0.14934,-0.0962 -0.23946,-0.59779 -0.0456,-0.2536 -0.11224,-0.60747 -0.14817,-0.78638 -0.0928,-0.46213 -0.071,-0.56435 0.13665,-0.64061 0.0474,-0.0174 0.71987,-0.1506 1.49439,-0.296 2.13377,-0.40055 5.24425,-0.98915 5.71699,-1.08184 1.34995,-0.26467 2.33019,-0.44119 2.44995,-0.44119 0.1549,0 0.25448,0.0526 0.63975,0.33802 0.18389,0.13623 0.5787,0.34642 0.77768,0.41404 0.33796,0.11483 0.57751,0.15328 0.95321,0.15299 0.58209,-4.7e-4 1.0558,-0.14375 1.53528,-0.46447 0.32468,-0.21718 0.60464,-0.51865 0.84836,-0.91356 0.12644,-0.20487 0.3323,-0.41955 0.46938,-0.48948 0.17214,-0.0878 0.38675,-0.13532 1.92126,-0.42518 0.86123,-0.16268 2.18339,-0.41357 2.93814,-0.55753 0.75475,-0.14397 1.39175,-0.26176 1.41556,-0.26176 0.0904,0 0.19098,0.0684 0.2297,0.15612 0.0574,0.13002 0.30174,1.56598 0.28326,1.66448 -0.0193,0.10313 -0.1426,0.22762 -0.25542,0.258 -0.0467,0.0126 -0.49558,0.099 -0.99761,0.1921 -1.48167,0.27473 -4.60155,0.85651 -5.02186,0.93645 -0.38887,0.074 -0.52197,0.11116 -0.59688,0.16685 -0.0538,0.04 -0.0572,0.0364 0.41816,0.43897 0.81153,0.68729 1.09413,1.03384 1.41431,1.73436 0.25238,0.55217 0.49912,1.50823 0.62419,2.4186198 0.0774,0.56347 0.0864,0.5996 0.17007,0.68327 0.11991,0.11991 0.38157,0.17308 0.51421,0.10448 0.0813,-0.042 0.1267,-0.13676 0.20923,-0.43615 0.0857,-0.31098 0.15018,-0.37623 0.30288,-0.30665 0.0838,0.0382 0.14367,0.19773 0.17228,0.45912 0.012,0.10931 0.0264,0.14775 0.0731,0.19442 0.0529,0.0529 0.0723,0.0582 0.21217,0.0586 0.1887,5.6e-4 0.29142,0.043 0.40244,0.16609 0.093,0.10312 0.13408,0.19163 0.21058,0.45349 0.0939,0.32139 0.11854,0.58458 0.0742,0.79241 -0.0182,0.0852 -0.0441,0.13161 -0.11034,0.19759 -0.18732,0.18649 -0.53454,0.24938 -1.37922,0.2498 -0.522,2.4e-4 -0.60133,-0.004 -0.81876,-0.0485 -0.72174,-0.14613 -1.1621,-0.3883 -1.43523,-0.78925 -0.15828,-0.23236 -0.21808,-0.42761 -0.30018,-0.98008 -0.0301,-0.2023 -0.10553,-0.64684 -0.16771,-0.98786 -0.0895,-0.4908698 -0.12713,-0.6518698 -0.18066,-0.7727998 -0.059,-0.13332 -0.0732,-0.15104 -0.11163,-0.13926 -0.0242,0.007 -0.047,0.0161 -0.0507,0.0194 -0.016,0.0139 -0.0445,1.0606398 -0.045,1.6493498 -0.002,1.91301 0.10822,3.88547 0.38779,6.96757 0.14572,1.60657 0.18024,2.01906 0.28403,3.39447 0.16061,2.12831 0.21224,2.78607 0.25316,3.22495 0.0535,0.57433 0.0534,0.86042 -4e-4,1.07099 -0.11907,0.46555 -0.45758,0.81588 -0.94641,0.97945 -0.1926,0.0645 -0.53155,0.0799 -0.71463,0.0327 -0.44897,-0.11592 -0.83113,-0.47336 -0.95425,-0.89253 -0.0528,-0.1797 -0.15462,-1.04503 -0.23272,-1.97742 -0.11548,-1.37862 -0.41011,-4.98732 -0.5251,-6.43161 -0.075,-0.94215 -0.1418,-1.75039 -0.14841,-1.7961 -0.0289,-0.19961 -0.15301,-0.28474 -0.41518,-0.28468 -0.19901,4e-5 -0.28378,0.0414 -0.34419,0.16811 -0.0394,0.0827 -0.0534,0.20288 -0.11146,0.95634 -0.12022,1.56135 -0.73382,8.90825 -0.75824,9.07872 -0.11364,0.79318 -0.87554,1.34462 -1.62841,1.1786 z M 16.469257,5.2290362 c -0.0618,-0.0104 -0.12559,-0.0263 -0.14166,-0.0353 -0.0479,-0.0268 0.08,-0.16136 0.21775,-0.22902 0.1077,-0.0529 0.14265,-0.0591 0.33061,-0.0591 0.1156,2e-5 0.24595,0.008 0.28967,0.0168 l 0.0795,0.0168 -0.0459,0.0645 c -0.12249,0.17202 -0.44842,0.27261 -0.72994,0.22526 z m 8.26799,-0.20875 c -0.80742,-0.12707 -1.49467,-0.61371 -1.86879,-1.32327 -0.19138,-0.36296 -0.27788,-0.67253 -0.29955,-1.07189 -0.0381,-0.70285 0.22521,-1.37039 0.74726,-1.89426999 0.3863,-0.38767 0.84443,-0.62374 1.36173,-0.70172 0.25628,-0.0386 0.41787,-0.0388 0.69998,-6.3e-4 0.3051,0.0412 0.55839,0.11852 0.83023,0.25339 0.73262,0.36347 1.20657,1.02228999 1.34553,1.87034999 0.21283,1.29886 -0.67614,2.55369 -2.01102,2.83868 -0.1879,0.0401 -0.63383,0.0564 -0.80537,0.0294 z m 0.77231,-0.74741 c 0.27124,-0.0608 0.54495,-0.20748 0.75904,-0.4068 0.0962,-0.0896 0.28631,-0.31934 0.28631,-0.34607 0,-0.007 -0.67187,-0.0121 -1.49304,-0.0121 -1.43171,0 -1.49221,0.002 -1.47278,0.0379 0.0112,0.0208 0.0829,0.1055 0.15943,0.18817 0.39082,0.42212 0.83476,0.6078 1.39321,0.58271 0.11867,-0.005 0.28418,-0.025 0.36783,-0.0438 z"
       id="path206" />
  </g>
</svg>
