<?xml version="1.0" encoding="UTF-8" standalone="no"?>
<svg
   width="873.85828"
   height="250"
   viewBox="0 0 231.20831 66.145835"
   version="1.1"
   id="svg8"
   inkscape:export-filename="/home/martin/Downloads/wishlist-logotype.png"
   inkscape:export-xdpi="96"
   inkscape:export-ydpi="96"
   inkscape:version="1.1 (ce6663b3b7, 2021-05-25)"
   sodipodi:docname="wishlist-logo-txt.svg"
   xmlns:inkscape="http://www.inkscape.org/namespaces/inkscape"
   xmlns:sodipodi="http://sodipodi.sourceforge.net/DTD/sodipodi-0.dtd"
   xmlns="http://www.w3.org/2000/svg"
   xmlns:svg="http://www.w3.org/2000/svg"
   xmlns:rdf="http://www.w3.org/1999/02/22-rdf-syntax-ns#"
   xmlns:cc="http://creativecommons.org/ns#"
   xmlns:dc="http://purl.org/dc/elements/1.1/">
  <defs
     id="defs2">
    <linearGradient
       id="linearGradient885"
       inkscape:swatch="solid">
      <stop
         style="stop-color:#000000;stop-opacity:1;"
         offset="0"
         id="stop883" />
    </linearGradient>
  </defs>
  <sodipodi:namedview
     id="base"
     pagecolor="#ffffff"
     bordercolor="#666666"
     borderopacity="1.0"
     inkscape:pageopacity="0.0"
     inkscape:pageshadow="2"
     inkscape:zoom="1"
     inkscape:cx="281"
     inkscape:cy="43.5"
     inkscape:document-units="mm"
     inkscape:current-layer="layer1"
     inkscape:document-rotation="0"
     showgrid="false"
     fit-margin-top="0"
     fit-margin-left="0"
     fit-margin-right="0"
     fit-margin-bottom="0"
     inkscape:window-width="1302"
     inkscape:window-height="704"
     inkscape:window-x="0"
     inkscape:window-y="0"
     inkscape:window-maximized="1"
     showguides="false"
     inkscape:guide-bbox="true"
     units="px"
     inkscape:pagecheckerboard="0" />
  <metadata
     id="metadata5">
    <rdf:RDF>
      <cc:Work
         rdf:about="">
        <dc:format>image/svg+xml</dc:format>
        <dc:type
           rdf:resource="http://purl.org/dc/dcmitype/StillImage" />
        <dc:title />
      </cc:Work>
    </rdf:RDF>
  </metadata>
  <g
     inkscape:label="Calque 1"
     inkscape:groupmode="layer"
     id="layer1"
     transform="translate(-297.89598,-170.04652)">
    <g
       id="g851"
       transform="matrix(0.94444382,0,0,0.94982223,4.0558397,3.9093972)"
       style="stroke-width:1.00029;stroke-miterlimit:4;stroke-dasharray:none">
      <path
         id="rect892"
         style="fill:#2d3142;stroke-linecap:round;stroke-linejoin:round;paint-order:stroke fill markers"
         d="m 325.05838,175.86458 h 39.87226 c 7.71905,0 13.93331,6.21426 13.93331,13.93331 v 39.87226 c 0,7.71906 -6.21426,13.93332 -13.93331,13.93332 h -39.87226 c -7.71906,0 -13.93332,-6.21426 -13.93332,-13.93332 v -39.87226 c 0,-7.71905 6.21426,-13.93331 13.93332,-13.93331 z" />
      <path
         style="fill:#ffffff;fill-opacity:1;stroke:#ffffff;stroke-width:0.79186662;stroke-linecap:round;stroke-linejoin:round;stroke-miterlimit:4;stroke-dasharray:none;stroke-opacity:1;paint-order:stroke fill markers"
         d="m 337.35737,215.53453 c -1.81868,5.62335 -3.6449,10.35398 -5.72617,15.90637 -0.50928,1.35864 -1.08829,3.27402 -1.58918,4.63554 -0.15339,0.41711 -0.73337,1.0793 -1.31851,0.92357 -0.45763,-0.1217 -0.99975,-1.9748 -1.12949,-2.35605 -1.76287,-5.42505 -3.10752,-9.75661 -4.70477,-14.74393 -0.37225,-1.11363 -1.25053,-3.61443 -1.41182,-4.73433 -0.10783,-0.7477 2.30193,-0.69542 2.81472,-0.33622 1.80712,4.75213 3.44018,10.01736 4.84889,14.7806 2.56076,-6.4172 4.80854,-13.56825 6.39265,-19.2032 0.39612,-1.42264 -1.07248,-3.31909 -1.49351,-4.69503 -0.18746,-0.6125 -0.0974,-1.60636 0.78609,-1.71498 0.63762,-0.0784 1.18239,0.59947 1.55939,1.01801 1.12288,1.24607 1.98115,2.72525 2.50777,4.2952 2.35612,7.00472 4.50188,13.246 6.94584,20.1056 0,0 10.6428,-26.12911 15.32782,-37.58671 2.07741,-4.64988 2.3687,-5.23432 4.14089,-8.40532 0.4011,-0.71766 1.95597,-2.2801 2.90015,-1.48983 0.86945,0.72762 -0.29228,2.72527 -1.22014,4.93833 -1.61283,4.02145 -2.99896,7.12034 -4.61194,11.14195 -4.05533,10.11145 -8.22004,20.17979 -12.27538,30.2914 -0.97695,2.43619 -1.93446,4.88135 -2.96548,7.29532 -0.27398,0.64135 -0.61428,2.05851 -1.45938,2.14641 -0.60646,0.063 -0.91128,-0.57062 -1.09764,-1.03641 -2.41961,-6.95817 -4.46597,-13.13874 -7.2208,-21.17629 z"
         id="path915"
         sodipodi:nodetypes="csscccscccscccccsccccsscc" />
      <g
         aria-label="ish"
         id="text10"
         style="font-size:51.8879px;line-height:0;fill:#2d3142">
        <path
           d="m 385.91856,212.10654 h 4.88122 v 29.71177 h -4.88122 z m 0,-11.56637 h 4.88122 v 6.18111 h -4.88122 z"
           style="font-size:54.3301px;font-family:'Montserrat light';-inkscape-font-specification:'Montserrat light, ';letter-spacing:0px"
           id="path36" />
        <path
           d="m 419.95446,212.98198 v 4.61593 q -2.06921,-1.06113 -4.2976,-1.5917 -2.22838,-0.53057 -4.61593,-0.53057 -3.63439,0 -5.46485,1.11419 -1.80393,1.1142 -1.80393,3.34258 0,1.69781 1.29989,2.67936 1.29989,0.95503 5.22609,1.83046 l 1.67129,0.3714 q 5.19956,1.11419 7.37489,3.15687 2.20185,2.01616 2.20185,5.65055 0,4.13842 -3.28952,6.5525 -3.26299,2.41409 -8.99312,2.41409 -2.38755,0 -4.98733,-0.47751 -2.57325,-0.45099 -5.43831,-1.37948 v -5.04039 q 2.70589,1.406 5.3322,2.12227 2.62631,0.68974 5.19956,0.68974 3.44869,0 5.30567,-1.16725 1.85699,-1.19378 1.85699,-3.34258 0,-1.98962 -1.35295,-3.05076 -1.32642,-1.06113 -5.86277,-2.04268 l -1.69781,-0.39793 q -4.53636,-0.95502 -6.55251,-2.91812 -2.01616,-1.98963 -2.01616,-5.43831 0,-4.19149 2.97118,-6.47293 2.97118,-2.28144 8.43602,-2.28144 2.7059,0 5.09345,0.39793 2.38755,0.39792 4.40371,1.19378 z"
           style="font-size:54.3301px;font-family:'Montserrat light';-inkscape-font-specification:'Montserrat light, ';letter-spacing:0px"
           id="path38" />
        <path
           d="m 454.01688,223.88514 v 17.93317 h -4.88122 v -17.774 q 0,-4.21801 -1.64475,-6.31376 -1.64476,-2.09574 -4.93428,-2.09574 -3.95273,0 -6.23417,2.5202 -2.28144,2.52019 -2.28144,6.87085 v 16.79245 h -4.90775 v -41.27814 h 4.90775 v 16.18231 q 1.75088,-2.67937 4.1119,-4.00579 2.38755,-1.32642 5.49137,-1.32642 5.11998,0 7.74629,3.18341 2.6263,3.15687 2.6263,9.31146 z"
           style="font-size:54.3301px;font-family:'Montserrat light';-inkscape-font-specification:'Montserrat light, ';letter-spacing:0px"
           id="path40" />
      </g>
      <g
         aria-label="List"
         id="text10-3"
         style="font-size:51.8879px;line-height:0;fill:#2d3142">
        <path
           d="m 462.81902,202.21146 h 5.35873 v 35.09703 h 19.28612 v 4.50982 h -24.64485 z"
           style="font-size:54.3301px;font-family:'Montserrat light';-inkscape-font-specification:'Montserrat light, ';letter-spacing:0px"
           id="path43" />
        <path
           d="m 492.87566,212.10654 h 4.88122 v 29.71177 h -4.88122 z m 0,-11.56637 h 4.88122 v 6.18111 h -4.88122 z"
           style="font-size:54.3301px;font-family:'Montserrat light';-inkscape-font-specification:'Montserrat light, ';letter-spacing:0px"
           id="path45" />
        <path
           d="m 526.91156,212.98198 v 4.61593 q -2.06922,-1.06113 -4.2976,-1.5917 -2.22838,-0.53057 -4.61593,-0.53057 -3.63439,0 -5.46485,1.11419 -1.80393,1.1142 -1.80393,3.34258 0,1.69781 1.29989,2.67936 1.29989,0.95503 5.22609,1.83046 l 1.67129,0.3714 q 5.19956,1.11419 7.37489,3.15687 2.20185,2.01616 2.20185,5.65055 0,4.13842 -3.28952,6.5525 -3.26299,2.41409 -8.99312,2.41409 -2.38755,0 -4.98733,-0.47751 -2.57325,-0.45099 -5.43831,-1.37948 v -5.04039 q 2.70589,1.406 5.3322,2.12227 2.62631,0.68974 5.19956,0.68974 3.44869,0 5.30567,-1.16725 1.85699,-1.19378 1.85699,-3.34258 0,-1.98962 -1.35295,-3.05076 -1.32642,-1.06113 -5.86277,-2.04268 l -1.69781,-0.39793 q -4.53636,-0.95502 -6.55251,-2.91812 -2.01616,-1.98963 -2.01616,-5.43831 0,-4.19149 2.97118,-6.47293 2.97118,-2.28144 8.43602,-2.28144 2.7059,0 5.09345,0.39793 2.38755,0.39792 4.40371,1.19378 z"
           style="font-size:54.3301px;font-family:'Montserrat light';-inkscape-font-specification:'Montserrat light, ';letter-spacing:0px"
           id="path47" />
        <path
           d="m 541.10424,203.67052 v 8.43602 h 10.05425 v 3.79356 h -10.05425 v 16.12925 q 0,3.63438 0.98155,4.66899 1.00807,1.0346 4.05884,1.0346 h 5.01386 v 4.08537 h -5.01386 q -5.65055,0 -7.79934,-2.09574 -2.1488,-2.12227 -2.1488,-7.69322 V 215.9001 h -3.58133 v -3.79356 h 3.58133 v -8.43602 z"
           style="font-size:54.3301px;font-family:'Montserrat light';-inkscape-font-specification:'Montserrat light, ';letter-spacing:0px"
           id="path49" />
      </g>
    </g>
  </g>
</svg>
