<?xml version="1.0" encoding="UTF-8" standalone="no"?>
<svg
   width="180"
   height="100"
   viewBox="0 0 47.625001 26.458333"
   version="1.1"
   id="svg8"
   sodipodi:docname="about-martin.svg"
   inkscape:version="1.2 (56b05e47e7, 2022-06-09, custom)"
   inkscape:export-filename="../4c839b5f/about-martin.png"
   inkscape:export-xdpi="96"
   inkscape:export-ydpi="96"
   xmlns:inkscape="http://www.inkscape.org/namespaces/inkscape"
   xmlns:sodipodi="http://sodipodi.sourceforge.net/DTD/sodipodi-0.dtd"
   xmlns="http://www.w3.org/2000/svg"
   xmlns:svg="http://www.w3.org/2000/svg"
   xmlns:rdf="http://www.w3.org/1999/02/22-rdf-syntax-ns#"
   xmlns:cc="http://creativecommons.org/ns#"
   xmlns:dc="http://purl.org/dc/elements/1.1/">
  <defs
     id="defs2" />
  <sodipodi:namedview
     id="base"
     pagecolor="#ffffff"
     bordercolor="#666666"
     borderopacity="1.0"
     inkscape:pageopacity="0.0"
     inkscape:pageshadow="2"
     inkscape:zoom="3.959798"
     inkscape:cx="44.951788"
     inkscape:cy="38.259528"
     inkscape:document-units="mm"
     inkscape:current-layer="layer1"
     inkscape:document-rotation="0"
     showgrid="false"
     units="px"
     inkscape:window-width="1854"
     inkscape:window-height="1016"
     inkscape:window-x="0"
     inkscape:window-y="0"
     inkscape:window-maximized="1"
     inkscape:showpageshadow="0"
     inkscape:pagecheckerboard="1"
     inkscape:deskcolor="#d1d1d1" />
  <metadata
     id="metadata5">
    <rdf:RDF>
      <cc:Work
         rdf:about="">
        <dc:format>image/svg+xml</dc:format>
        <dc:type
           rdf:resource="http://purl.org/dc/dcmitype/StillImage" />
        <dc:title />
      </cc:Work>
    </rdf:RDF>
  </metadata>
  <g
     inkscape:label="Calque 1"
     inkscape:groupmode="layer"
     id="layer1">
    <path
       style="fill:#000000;stroke-width:0.0388329"
       d="m 21.236071,26.437253 c -0.323097,-0.0657 -0.621022,-0.295886 -0.778485,-0.601552 -0.156443,-0.303695 -0.157533,-0.258465 0.0756,-3.144039 0.0638,-0.790245 0.185454,-2.240662 0.270235,-3.223131 0.271205,-3.142559 0.278016,-3.259352 0.299226,-5.134397 0.0196,-1.733893 0.0113,-1.991458 -0.0643,-1.991458 -0.0373,0 -0.801785,1.178383 -1.782404,2.747282 -0.651692,1.04264 -0.679293,1.117171 -0.453608,1.224793 0.180573,0.0861 0.212074,0.216964 0.0928,0.385298 -0.0498,0.0703 -0.275255,0.372487 -0.500929,0.671502 -0.777485,1.03011 -3.783572,5.685348 -3.986586,6.173637 -0.160873,0.386927 -0.245044,0.481249 -0.369637,0.414198 -0.101781,-0.0548 -0.869156,-1.201173 -1.017809,-1.520539 -0.150473,-0.323276 -0.140692,-0.654242 0.0289,-0.977308 0.155043,-0.295346 0.706313,-1.162752 1.735553,-2.730842 0.738644,-1.125341 1.034229,-1.61019 1.409496,-2.312024 0.217174,-0.406147 0.282116,-0.467369 0.53887,-0.507959 0.111063,-0.0175 0.231255,-0.063 0.267085,-0.101032 0.0982,-0.104142 2.832374,-4.467105 2.832374,-4.519616 0,-0.0596 -0.112242,-0.0396 -0.695893,0.123883 -1.094921,0.306706 -1.152932,0.314956 -2.362195,0.335526 -0.603371,0.0103 -1.097041,0.0335 -1.097041,0.0516 0,0.0181 0.0592,0.131163 0.131543,0.251265 0.0776,0.128832 0.123522,0.249024 0.111982,0.293155 -0.0279,0.106562 -0.316946,0.307866 -0.442098,0.307866 -0.0879,0 -0.141843,-0.0517 -0.322076,-0.308906 -0.119043,-0.169893 -0.271836,-0.371977 -0.339527,-0.449068 -0.155063,-0.176604 -0.451988,-0.329066 -0.643302,-0.330296 -0.397077,-0.003 -0.702183,-0.153573 -0.827076,-0.409348 -0.115552,-0.236675 -0.0997,-0.433728 0.0588,-0.732614 0.0748,-0.140903 0.135912,-0.284185 0.135912,-0.318396 0,-0.0907 -0.262155,-0.4332085 -0.353917,-0.4623291 -0.0549,-0.0174 -0.149382,0.0227 -0.314916,0.1338726 -0.223974,0.1503928 -0.382917,0.1929236 -0.482299,0.1290524 -0.0738,-0.047401 -0.441018,-0.6174417 -0.441018,-0.6845229 0,-0.034401 0.103432,-0.1428227 0.229854,-0.2409946 0.126423,-0.098202 0.248745,-0.2292143 0.271835,-0.2912055 0.0231,-0.062001 0.0624,-0.1672031 0.0874,-0.2337944 0.0503,-0.1339225 0.236055,-0.266875 0.373247,-0.2670951 0.0487,-8e-5 0.153593,0.028701 0.233005,0.063901 0.0868,0.038501 0.307025,0.073601 0.55247,0.088102 0.332636,0.0196 0.435188,0.040801 0.554661,0.1146822 l 0.146582,0.090602 -0.0755,0.1222423 c -0.0415,0.067201 -0.151333,0.1805134 -0.244005,0.2517448 -0.247324,0.1900936 -0.261095,0.2573848 -0.108162,0.52837 0.162383,0.2877154 0.350257,0.4758089 0.576941,0.5776103 0.152563,0.0685 0.295616,0.0844 0.993709,0.110273 0.448518,0.0166 1.110411,0.0463 1.470858,0.0659 0.770194,0.0419 0.871306,0.0265 1.771623,-0.2705052 0.698403,-0.2303844 1.04867,-0.3766571 1.0483,-0.4377783 -3e-4,-0.036901 -0.563871,-0.3865073 -1.259164,-0.7810247 C 18.168703,8.482433 17.944638,8.1575969 17.662223,7.3914724 17.452859,6.8235117 16.839957,5.3919146 16.757126,5.2773724 l -0.0657,-0.090902 -0.189464,0.1215723 C 16.221556,5.4879764 16.094863,5.5237371 15.93023,5.4694061 15.766377,5.415305 15.677325,5.2667122 15.677325,5.0472981 c 0,-0.1250124 0.0236,-0.1746733 0.125693,-0.264045 0.361117,-0.316296 0.604491,-0.5909212 0.650032,-0.7335039 0.144223,-0.4515485 0.243685,-0.5239699 0.774745,-0.5641406 0.455888,-0.034501 0.52334,-0.090502 0.56562,-0.4699289 0.0351,-0.314506 0.127943,-0.5256999 0.312266,-0.7100334 0.296146,-0.2961356 0.804796,-0.4013076 1.06047,-0.2192542 l 0.120373,0.085702 -0.270335,0.2326644 c -0.331847,0.2856154 -0.392988,0.4550586 -0.245475,0.6802029 0.125142,0.1909736 0.409148,0.1910036 0.667953,7e-5 0.158813,-0.1171622 0.348946,-0.1977237 0.383987,-0.1626931 0.0146,0.0146 0.0231,0.1086921 0.0189,0.209104 -0.0163,0.3903574 -0.344636,0.8030952 -0.719163,0.9039471 -0.152773,0.041101 -0.248245,0.037701 -0.688043,-0.024901 -0.149333,-0.0212 -0.186164,-0.0124 -0.252415,0.060901 -0.149453,0.1652632 -0.104792,0.3637969 0.309736,1.3767661 0.5683,1.3887362 0.744324,1.7698334 0.884406,1.9146962 0.164973,0.1706032 1.949977,1.2354433 2.511388,1.4981483 l 0.252965,0.1183822 1.321605,0.0165 c 0.828155,0.0103 1.420416,10e-4 1.58626,-0.0248 0.284425,-0.044401 0.682942,-0.2508148 2.021218,-1.0466998 0.808455,-0.4807891 0.877746,-0.5466604 1.130621,-1.0746703 0.210124,-0.4387483 0.913387,-2.1574508 0.913387,-2.2322222 0,-0.1102621 -0.128192,-0.0195 -0.231814,0.1640831 -0.175033,0.3101458 -0.311806,0.423798 -0.53332,0.4431583 -0.321006,0.028101 -0.594021,-0.2055938 -0.594021,-0.5083596 0,-0.1209922 0.204584,-0.6537823 0.572561,-1.4910581 0.179913,-0.4093778 0.251144,-0.5307101 0.345106,-0.5878512 0.0666,-0.040501 0.215534,-0.2259642 0.340597,-0.424168 0.137172,-0.2174041 0.273055,-0.3835972 0.355056,-0.4342782 0.144853,-0.089502 0.144883,-0.089602 0.574141,-1.10251083 0.153143,-0.36134683 0.300276,-0.66425255 0.326976,-0.67310272 0.113742,-0.03770071 0.0307,0.26102493 -0.274805,0.98852868 C 29.741871,1.5923128 29.67419,1.7921866 29.6867,1.8993786 c 0.009,0.075601 -0.0117,0.2981456 -0.0456,0.4945293 -0.0812,0.4706089 -0.0771,0.7269438 0.015,0.9298076 l 0.0749,0.1650331 h 0.271195 c 0.322796,0 0.393848,0.023801 0.645412,0.2157841 0.173424,0.1323725 0.216234,0.1470028 0.445309,0.1521829 0.293815,0.007 0.491139,0.093102 0.54682,0.2395445 0.0393,0.103372 -0.0136,0.2586949 -0.381347,1.1203312 -0.169713,0.3976375 -0.258945,0.4660288 -0.486209,0.372687 -0.0686,-0.028201 -0.169843,-0.059501 -0.224894,-0.069701 -0.125103,-0.023 -0.167054,0.038601 -0.362187,0.5321101 -0.322586,0.8158054 -0.846676,2.0167881 -0.953808,2.1857213 -0.138983,0.2191441 -0.325317,0.3575567 -1.04133,0.7734946 -0.305016,0.1771934 -0.600341,0.3584468 -0.656282,0.4027676 l -0.101692,0.080602 0.132032,0.080702 c 0.186734,0.1141421 1.333275,0.5006191 1.714983,0.5780911 0.353966,0.0718 0.998648,0.0628 2.866864,-0.0404 1.033809,-0.0571 1.08234,-0.0683 1.305214,-0.3006057 0.113663,-0.1184822 0.268465,-0.4099177 0.235345,-0.4430483 -0.008,-0.008 -0.108262,0.063501 -0.223604,0.158143 -0.115343,0.094602 -0.259815,0.1830334 -0.321036,0.1964837 -0.222605,0.048901 -0.416848,-0.1134322 -0.416848,-0.3483466 0,-0.049501 0.0706,-0.1928537 0.156823,-0.318546 l 0.156823,-0.2285343 -0.0252,-0.316296 -0.0252,-0.316296 0.133612,-0.1457928 c 0.126663,-0.1382126 0.149293,-0.1470727 0.435548,-0.1704832 0.353407,-0.0289 0.410098,-0.077201 0.410318,-0.3497466 3e-4,-0.3116859 0.225894,-0.5517004 0.570451,-0.6068015 0.330636,-0.052901 0.561741,0.1199823 0.944638,0.7065234 0.168313,0.2578249 0.193413,0.3221061 0.193363,0.4951794 -1.5e-4,0.5124396 -0.285815,0.636722 -0.679762,0.2957655 -0.143683,-0.1243623 -0.209574,-0.1551229 -0.332197,-0.1551229 -0.107002,0 -0.152973,0.0167 -0.152973,0.055701 0,0.1335125 0.0972,0.2861754 0.293766,0.4613687 0.308416,0.2748852 0.313006,0.2603449 -0.308706,0.9779785 -0.410668,0.4740287 -0.489889,0.6257917 -0.489889,0.9384577 0,0.294856 -0.056,0.464309 -0.206144,0.623702 -0.110012,0.116782 -0.222534,0.166163 -0.632202,0.277465 -0.241845,0.0657 -0.436468,0.228665 -0.808615,0.677083 -0.388918,0.468619 -0.5307,0.562341 -0.744124,0.491899 -0.304936,-0.100632 -0.316776,-0.351276 -0.0347,-0.734464 0.0954,-0.129602 0.173463,-0.248684 0.173473,-0.264645 0,-0.016 -0.484929,-0.029 -1.07762,-0.029 -1.199843,0 -1.227103,-0.003 -2.464327,-0.313226 -0.378247,-0.0947 -0.707483,-0.172183 -0.731633,-0.172183 -0.0241,0 0.0296,0.133942 0.119452,0.297645 0.128732,0.234555 1.5938,2.574419 2.420706,3.866083 0.162123,0.253265 0.244164,0.310556 0.400207,0.279516 0.0867,-0.0172 0.131983,10e-4 0.213904,0.0877 0.162043,0.170854 1.157192,1.769704 1.157692,1.860006 5.8e-4,0.102021 -0.0858,0.179453 -0.54322,0.486909 l -0.368917,0.247974 -0.427158,-0.004 c -0.475629,-0.004 -0.997919,-0.119592 -1.140502,-0.252434 -0.0832,-0.0775 -0.506529,-0.771045 -0.681853,-1.117022 -0.128602,-0.253794 -0.125792,-0.331336 0.0166,-0.458218 0.0641,-0.0571 0.116502,-0.141473 0.116502,-0.187514 0,-0.0887 -2.12824,-3.535137 -2.356385,-3.815872 -0.247404,-0.304426 -0.245424,-0.313556 -0.245424,1.131552 0,1.679511 0.0482,2.530637 0.310195,5.479763 0.213055,2.397925 0.466699,5.764029 0.466079,6.185377 -5.8e-4,0.426808 -0.225804,0.787295 -0.628332,1.005859 -0.183873,0.0998 -0.808115,0.0995 -1.009239,-5.8e-4 -0.278025,-0.138313 -0.52233,-0.446428 -0.620151,-0.782145 -0.0189,-0.0647 -0.120883,-1.218513 -0.226745,-2.564078 -0.308865,-3.925784 -0.463478,-5.81599 -0.486709,-5.950033 -0.0119,-0.0688 -0.0598,-0.151803 -0.106432,-0.184453 -0.169973,-0.119052 -0.460029,-0.0477 -0.5287,0.130122 -0.0216,0.056 -0.0665,0.451249 -0.0998,0.878417 -0.265085,3.405364 -0.571321,7.201016 -0.602211,7.464041 -0.0426,0.362827 -0.134563,0.571221 -0.344847,0.781505 -0.267365,0.267365 -0.678012,0.390777 -1.049249,0.315326 z m -6.86646,-3.240762 c 0.119252,-0.164503 1.530919,-2.328844 2.848754,-4.367642 0.672472,-1.04038 0.779604,-1.226023 0.720193,-1.247994 -0.0384,-0.0142 -0.423968,-0.0904 -0.856836,-0.169293 -0.718984,-0.131062 -0.794815,-0.138373 -0.876997,-0.0845 -0.114302,0.0749 -2.790952,4.18718 -2.856404,4.388453 -0.0268,0.0825 -0.0412,0.241635 -0.0319,0.353667 0.0145,0.174413 0.0606,0.271345 0.321176,0.674413 0.167353,0.258895 0.338116,0.507039 0.379477,0.55143 0.106332,0.114132 0.221754,0.0819 0.352517,-0.0985 z m 15.200147,-6.113625 c 0.172953,-0.125292 0.220644,-0.182134 0.175373,-0.209074 -0.0164,-0.01 -0.191673,-0.0303 -0.389577,-0.0457 l -0.359837,-0.028 0.042,0.110962 c 0.0592,0.156193 0.190744,0.285705 0.290225,0.285705 0.0465,0 0.155263,-0.0513 0.241765,-0.113932 z M 17.133353,16.692198 c 0.0323,-0.0523 -0.162373,-0.301775 -0.259605,-0.332636 -0.0564,-0.0179 -0.114812,0.0108 -0.210134,0.103182 -0.0726,0.0704 -0.132032,0.140123 -0.132032,0.154973 0,0.0301 0.311085,0.101362 0.473419,0.108492 0.0575,0.003 0.115232,-0.0128 0.128352,-0.034 z m 13.335242,-0.107882 0.128952,-0.107662 -0.0605,-0.144752 c -0.0333,-0.0796 -0.0841,-0.144763 -0.112972,-0.144763 -0.06,0 -0.223304,0.313096 -0.223304,0.428208 0,0.109932 0.114902,0.0966 0.267805,-0.031 z m 3.369124,-7.9909909 c 0.0714,-0.054501 0.129872,-0.1155422 0.129872,-0.1356726 0,-0.037701 -0.300846,-0.2701051 -0.349656,-0.2701051 -0.0519,0 -0.232845,0.1906236 -0.232845,0.2453247 0,0.092102 0.156033,0.2595049 0.241865,0.2595049 0.0445,0 0.139332,-0.044601 0.210764,-0.099102 z M 32.964912,22.334845 c -2.846694,-2.792103 -3.829752,-3.774691 -3.803132,-3.801312 0.0969,-0.0969 0.578971,-0.0773 1.145752,0.0464 0.389187,0.085 0.569291,0.0366 1.04358,-0.280545 0.204224,-0.136543 0.404407,-0.248265 0.444858,-0.248265 0.0425,0 0.113062,0.0615 0.167073,0.145623 0.810056,1.261144 3.527277,5.672007 3.543217,5.751709 0.0301,0.150472 -0.198614,0.354776 -0.397177,0.354776 -0.128963,0 -0.258995,-0.119372 -2.144171,-1.968386 z M 23.31817,8.4601226 C 22.530485,8.3188499 21.913503,7.7991601 21.652328,7.0569861 c -0.130162,-0.369877 -0.124062,-0.9952988 0.0135,-1.3825462 0.53726,-1.5126285 2.575738,-1.8893057 3.567717,-0.6592524 0.866206,1.0741003 0.554791,2.6412499 -0.644092,3.2413712 -0.363127,0.1817735 -0.907127,0.2688751 -1.271264,0.2035639 z"
       id="path226" />
  </g>
</svg>
