<?xml version="1.0" standalone="no"?>
<!DOCTYPE svg PUBLIC "-//W3C//DTD SVG 20010904//EN"
 "http://www.w3.org/TR/2001/REC-SVG-20010904/DTD/svg10.dtd">
<svg version="1.0" xmlns="http://www.w3.org/2000/svg"
 width="380.000000pt" height="164.000000pt" viewBox="0 0 380.000000 164.000000"
 preserveAspectRatio="xMidYMid meet">

<g transform="translate(0.000000,164.000000) scale(0.100000,-0.100000)"
fill="#000000" stroke="none">
<path d="M1368 1315 c-21 -14 -42 -34 -48 -44 -11 -22 -213 -507 -286 -688
-44 -109 -50 -119 -60 -100 -7 12 -39 102 -73 200 -51 147 -67 183 -94 207
-17 15 -33 27 -35 25 -2 -1 5 -32 14 -67 16 -61 16 -67 -1 -114 -9 -27 -36
-104 -59 -170 l-42 -121 -55 176 c-52 169 -56 176 -82 179 -17 2 -27 -1 -27
-10 0 -31 131 -404 145 -413 31 -20 50 11 106 175 31 90 58 159 61 154 3 -5
24 -67 47 -139 63 -196 57 -185 103 -185 46 0 17 -60 245 505 188 468 183 455
180 455 -1 0 -19 -11 -39 -25z"/>
<path d="M1925 937 c-3 -7 -4 -134 -3 -282 l3 -270 28 -3 27 -3 0 130 0 130
30 35 c35 39 78 53 110 36 38 -20 50 -69 50 -205 l0 -126 28 3 27 3 3 135 c3
151 -6 199 -45 229 -35 29 -120 29 -156 1 -44 -34 -47 -28 -47 90 l0 110 -25
0 c-14 0 -28 -6 -30 -13z"/>
<path d="M1402 908 c-28 -28 -3 -72 39 -66 30 4 47 33 33 56 -14 21 -55 27
-72 10z"/>
<path d="M2522 892 c-9 -7 -12 -66 -10 -263 l3 -254 130 0 130 0 0 25 c0 25
-1 25 -97 28 l-98 3 0 228 c0 199 -2 230 -16 235 -20 8 -26 7 -42 -2z"/>
<path d="M2844 886 c-13 -33 0 -51 36 -51 32 0 35 2 35 30 0 27 -4 30 -33 33
-22 2 -34 -2 -38 -12z"/>
<path d="M3387 848 c-9 -7 -17 -31 -19 -53 -3 -35 -6 -40 -30 -43 -22 -3 -28
-9 -28 -28 0 -20 5 -24 29 -24 l29 0 4 -140 c3 -136 4 -140 30 -166 34 -35
111 -40 134 -9 21 28 12 40 -28 37 -61 -6 -68 11 -68 154 l0 124 49 0 c31 0
51 5 54 13 9 27 -6 37 -54 37 l-49 0 0 49 c0 35 -4 51 -16 55 -20 8 -17 8 -37
-6z"/>
<path d="M1405 758 c-3 -8 -4 -95 -3 -193 l3 -180 30 0 30 0 0 190 0 190 -28
3 c-16 2 -29 -2 -32 -10z"/>
<path d="M1611 744 c-38 -32 -49 -80 -26 -123 12 -24 34 -40 91 -66 72 -33 80
-42 74 -85 -5 -40 -75 -53 -137 -24 -39 19 -59 9 -49 -23 9 -28 48 -43 114
-43 93 0 142 42 142 122 0 37 -44 81 -98 99 -60 19 -82 38 -82 69 0 15 7 33
15 40 18 15 76 16 103 1 31 -17 42 -13 42 12 0 31 -36 47 -105 47 -43 0 -60
-5 -84 -26z"/>
<path d="M3084 746 c-39 -17 -64 -52 -64 -88 0 -53 20 -76 99 -115 66 -33 76
-42 79 -68 3 -19 -2 -33 -14 -42 -24 -18 -98 -16 -135 2 -26 14 -30 14 -35 0
-22 -56 96 -96 179 -61 50 21 72 52 72 101 0 54 -18 75 -94 109 -76 34 -98 58
-83 91 15 33 56 42 109 23 46 -17 53 -15 53 14 0 40 -104 61 -166 34z"/>
<path d="M2850 561 l0 -191 30 0 c39 0 41 10 38 210 l-3 165 -32 3 -33 3 0
-190z"/>
</g>
</svg>
