<?xml version="1.0" encoding="UTF-8" standalone="no"?>
<svg
   xmlns:dc="http://purl.org/dc/elements/1.1/"
   xmlns:cc="http://creativecommons.org/ns#"
   xmlns:rdf="http://www.w3.org/1999/02/22-rdf-syntax-ns#"
   xmlns:svg="http://www.w3.org/2000/svg"
   xmlns="http://www.w3.org/2000/svg"
   xmlns:sodipodi="http://sodipodi.sourceforge.net/DTD/sodipodi-0.dtd"
   xmlns:inkscape="http://www.inkscape.org/namespaces/inkscape"
   width="180"
   height="100"
   viewBox="0 0 47.625001 26.458333"
   version="1.1"
   id="svg8"
   inkscape:version="1.0.2 (e86c870879, 2021-01-15)"
   sodipodi:docname="about-coni.svg">
  <defs
     id="defs2" />
  <sodipodi:namedview
     id="base"
     pagecolor="#ffffff"
     bordercolor="#666666"
     borderopacity="1.0"
     inkscape:pageopacity="0.0"
     inkscape:pageshadow="2"
     inkscape:zoom="1.979899"
     inkscape:cx="65.616118"
     inkscape:cy="77.569451"
     inkscape:document-units="mm"
     inkscape:current-layer="layer1"
     inkscape:document-rotation="0"
     showgrid="false"
     units="px"
     inkscape:window-width="1856"
     inkscape:window-height="1016"
     inkscape:window-x="64"
     inkscape:window-y="27"
     inkscape:window-maximized="1" />
  <metadata
     id="metadata5">
    <rdf:RDF>
      <cc:Work
         rdf:about="">
        <dc:format>image/svg+xml</dc:format>
        <dc:type
           rdf:resource="http://purl.org/dc/dcmitype/StillImage" />
        <dc:title></dc:title>
      </cc:Work>
    </rdf:RDF>
  </metadata>
  <g
     inkscape:label="Calque 1"
     inkscape:groupmode="layer"
     id="layer1">
    <path
       style="fill:#000000;stroke-width:0.0317699"
       d="m 21.171806,26.420285 c -0.48047,-0.106829 -0.81108,-0.438624 -0.94052,-0.943898 -0.0575,-0.224498 -0.0486,-0.548958 0.0377,-1.378779 0.21957,-2.110363 0.57264,-7.073824 0.74012,-10.404626 0.0615,-1.222613 0.0733,-1.287515 0.25062,-1.377146 0.0478,-0.02414 0.16546,-0.06927 0.26156,-0.100292 0.0961,-0.03102 0.36774,-0.146137 0.60363,-0.255812 0.49377,-0.229574 1.22192,-0.527766 1.465039,-0.599967 0.214241,-0.06362 0.462301,-0.06302 0.65449,0.0016 0.22909,0.07701 1.60552,0.693404 1.92879,0.863748 0.409181,0.21562 0.4072,0.210494 0.389861,1.007226 -0.0125,0.576405 0.006,0.884632 0.203299,3.319949 0.19295,2.385468 0.534201,6.720811 0.635161,8.069274 0.0203,0.270692 0.0286,0.59013 0.0186,0.709863 -0.0474,0.565286 -0.4662,1.000409 -1.06389,1.105336 -0.61689,0.108295 -1.27793,-0.33825 -1.403599,-0.948156 -0.0489,-0.237328 -0.36587,-4.006353 -0.667171,-7.933095 -0.0557,-0.726359 -0.113909,-1.302921 -0.13614,-1.349289 -0.0504,-0.105155 -0.16496,-0.1612 -0.33063,-0.161783 -0.17199,-6.02e-4 -0.28289,0.04286 -0.32895,0.128939 -0.0203,0.0379 -0.05,0.220863 -0.066,0.406586 -0.016,0.185723 -0.0929,1.052498 -0.17089,1.92617 -0.14808,1.659029 -0.267,3.17321 -0.427959,5.449266 -0.0637,0.90058 -0.112751,1.408962 -0.14717,1.524952 -0.155151,0.522922 -0.4782,0.829199 -0.98872,0.937379 -0.25303,0.05362 -0.2869,0.05379 -0.51723,0.0026 z m 5.149109,-14.318566 c -0.35875,-0.07038 -0.50205,-0.137057 -1.103839,-0.51355 l -0.35486,-0.222005 0.184239,-0.09207 c 0.419,-0.209379 0.65398,-0.541537 0.6904,-0.975917 0.0123,-0.147291 0.0319,-0.225497 0.0543,-0.217275 0.349121,0.128246 0.55914,0.191559 0.576821,0.173883 0.0693,-0.06928 -0.12719,-0.214778 -0.84846,-0.6283524 -0.54114,-0.310293 -0.63843,-0.332958 -1.42484,-0.331906 -0.734921,9.58e-4 -1.02345,0.04628 -1.62206,0.254644 -0.57685,0.200785 -1.20527,0.5444604 -1.2054,0.6592084 -8e-5,0.07827 0.0424,0.06384 0.63534,-0.2159944 0.51583,-0.243431 0.9135,-0.383593 1.3661,-0.481487 0.38104,-0.08242 1.36399,-0.08442 1.6261,-0.0033 0.537899,0.166439 0.795499,0.7197554 0.554659,1.1913934 -0.0898,0.175783 -0.26524,0.328139 -0.44706,0.388145 -0.0572,0.01887 -0.40273,0.03846 -0.767909,0.04353 -0.610521,0.0085 -0.68571,0.0159 -0.93402,0.09207 -0.366031,0.112289 -0.61491,0.228323 -1.05484,0.491787 -0.50978,0.305291 -0.80665,0.400119 -1.20611,0.385265 -0.27138,-0.01009 -0.32332,-0.02262 -0.54202,-0.130787 -0.454,-0.224529 -0.80823,-0.713979 -0.98286,-1.358053 -0.1028,-0.379172 -0.1036,-0.9576764 -0.002,-1.3116894 0.25308,-0.8802238 0.9017,-1.5113749 1.79101,-1.74279 0.25579,-0.06656 0.33719,-0.06948 2.29845,-0.08242 1.39211,-0.0092 2.14342,-0.002 2.38256,0.022909 1.07455,0.1117501 1.75251,0.676976 2.09692,1.748258 0.0675,0.210039 0.0904,0.354974 0.103059,0.652264 0.0204,0.4808424 -0.0464,0.7789954 -0.27845,1.2423064 -0.274339,0.547711 -0.618399,0.853966 -1.065909,0.948769 -0.24407,0.0517 -0.31404,0.05348 -0.51947,0.01317 z M 23.655586,7.0490593 c -0.0556,-0.05684 -0.101041,-0.1225799 -0.101041,-0.1460879 0,-0.03422 -0.0564,-0.1440061 -0.117269,-0.2282821 -0.0197,-0.02722 -0.14612,0.113194 -0.203911,0.226426 -0.0833,0.1631949 -0.164119,0.201507 -0.317979,0.150728 -0.20573,-0.0679 -0.2497,-0.1308579 -0.24158,-0.3458929 0.004,-0.1030851 -0.002,-0.1968671 -0.0138,-0.208406 -0.0115,-0.011541 -0.13144,0.03011 -0.26658,0.09255 -0.28677,0.1324948 -0.32603,0.136526 -0.44192,0.04537 -0.0746,-0.0587 -0.084,-0.08405 -0.0675,-0.1826758 0.0105,-0.06299 0.028,-0.1911441 0.0389,-0.284794 0.0196,-0.1681832 0.0189,-0.1699862 -0.0559,-0.1468991 -0.0416,0.01286 -0.13213,0.06446 -0.2011,0.114676 -0.16022,0.116654 -0.24243,0.115082 -0.38182,-0.0073 -0.1404,-0.123278 -0.14434,-0.218145 -0.017,-0.409716 0.0523,-0.07863 0.0951,-0.1686939 0.0952,-0.20014 1.2e-4,-0.05069 -0.0206,-0.05496 -0.18254,-0.03768 -0.15299,0.01633 -0.20592,0.0075 -0.32565,-0.05402 -0.0798,-0.04102 -0.14796,-0.100477 -0.15427,-0.134511 -0.006,-0.03355 0.035,-0.1663 0.0915,-0.295005 0.0566,-0.1287061 0.0933,-0.2435659 0.0816,-0.255246 -0.0117,-0.01168 -0.10904,-0.0235 -0.21636,-0.026259 -0.21966,-0.0057 -0.31081,-0.07464 -0.31081,-0.235211 0,-0.09325 0.14601,-0.2989508 0.294,-0.4141829 l 0.0875,-0.06813 -0.22829,-0.1643841 c -0.25916,-0.1866101 -0.31838,-0.2921251 -0.23521,-0.4190559 0.0281,-0.04285 0.0902,-0.08615 0.13801,-0.09623 0.14774,-0.03114 0.29347,-0.106607 0.29347,-0.1519749 0,-0.05596 -0.0885,-0.135321 -0.19696,-0.1765431 -0.0471,-0.017909 -0.10991,-0.06959 -0.13956,-0.1148461 -0.046,-0.07015 -0.0484,-0.1008218 -0.0162,-0.20805 0.0503,-0.167935 0.15554,-0.2347159 0.33177,-0.210561 0.31375,0.043 0.35415,-0.05546 0.1163,-0.2834139 -0.17473,-0.1674545 -0.19049,-0.2305483 -0.0962,-0.3852174 0.0695,-0.1139381 0.17257,-0.1528208 0.32691,-0.1232852 0.0566,0.010825 0.16522,0.028758 0.24145,0.039851 0.13485,0.019624 0.13798,0.018112 0.11551,-0.055848 -0.0127,-0.041809 -0.0643,-0.1392284 -0.11477,-0.216486 -0.11201,-0.1716003 -0.11465,-0.2365839 -0.0137,-0.3375233 0.0921,-0.092058 0.30222,-0.10418197 0.50977,-0.02941 0.0699,0.02518 0.12869,0.045997 0.13067,0.04626 0.002,2.642e-4 0.011,-0.088874 0.02,-0.19808317 0.0169,-0.204493 0.0992,-0.4223076 0.16991,-0.449428 0.022,-0.00846 0.15448,0.039928 0.29428,0.1075338 l 0.25418,0.1229196 0.0337,-0.096811 c 0.0186,-0.053246 0.0252,-0.1308577 0.0148,-0.17247 -0.0471,-0.1877861 0.0849,-0.3204478 0.26704,-0.268223 0.13082,0.037517 0.34342,0.184131 0.40641,0.2802621 l 0.0533,0.081328 0.0752,-0.1242255 c 0.0414,-0.068324 0.0753,-0.1563924 0.0754,-0.1957076 9e-5,-0.039315 0.0287,-0.1000751 0.0637,-0.135022 0.11859,-0.1185872 0.4316,-0.061014 0.46143,0.084871 0.008,0.040688 0.0217,0.106145 0.0296,0.1454602 0.008,0.039315 0.0351,0.099662 0.0603,0.1341045 0.0444,0.060677 0.0502,0.05854 0.18837,-0.068787 0.25217,-0.232441 0.41538,-0.2842491 0.53106,-0.168569 0.0523,0.052244 0.0636,0.1058995 0.0636,0.3018136 0,0.2931017 0.0257,0.3006709 0.27004,0.079425 0.0965,-0.087367 0.20495,-0.1588493 0.24105,-0.1588493 0.0361,0 0.10744,0.04179 0.15852,0.092866 0.0873,0.087311 0.0929,0.1082147 0.0929,0.3494682 0,0.29585167 0.0212,0.31169877 0.23827,0.17800677 0.16317,-0.10049447 0.31314,-0.10430657 0.37944,-0.00964 0.0683,0.097473 0.0617,0.3601019 -0.0132,0.525076 l -0.0613,0.1350219 h 0.27093 c 0.25709,0 0.27568,0.00474 0.3638,0.092866 0.0511,0.051076 0.0929,0.1231708 0.0929,0.1602103 0,0.03704 -0.0623,0.1346403 -0.13852,0.2168905 -0.0762,0.08225 -0.15532,0.181712 -0.17585,0.221027 -0.0372,0.07127 -0.0366,0.07148 0.21564,0.07148 0.23324,0 0.25794,0.0063 0.31662,0.08092 0.13761,0.1749429 0.10533,0.3899918 -0.0686,0.457218 -0.0384,0.014841 -0.10334,0.06302 -0.1443,0.1070769 l -0.0745,0.0801 0.0745,0.04777 c 0.041,0.02627 0.135,0.06371 0.20896,0.0832 0.15487,0.04081 0.1991,0.1041989 0.1991,0.2853471 0,0.1596979 -0.0724,0.239385 -0.24221,0.2665358 -0.28155,0.04502 -0.29951,0.161701 -0.0466,0.3030281 0.16325,0.09124 0.20659,0.1873898 0.16091,0.3570309 -0.0422,0.156786 -0.14712,0.230087 -0.29072,0.2031471 -0.0584,-0.010961 -0.14436,-0.0054 -0.19099,0.01231 l -0.0848,0.03223 0.10963,0.2160899 c 0.1882,0.370939 0.12211,0.4799868 -0.30959,0.5108739 l -0.21492,0.01538 0.0463,0.1108998 c 0.0628,0.1503712 0.0608,0.433617 -0.004,0.497994 -0.0779,0.07787 -0.28818,0.06262 -0.45082,-0.03269 -0.19329,-0.1132769 -0.22084,-0.07871 -0.16655,0.2090141 0.0501,0.2655959 0.0211,0.3496338 -0.14826,0.430018 -0.13861,0.06578 -0.19631,0.04486 -0.35394,-0.128352 -0.0732,-0.08041 -0.15776,-0.142135 -0.19475,-0.142135 -0.0598,0 -0.0654,0.019061 -0.0654,0.223833 0,0.19529 -0.01,0.233777 -0.078,0.3018141 -0.0512,0.05123 -0.11388,0.07798 -0.18263,0.07798 -0.0885,0 -0.13686,-0.03431 -0.3136,-0.2226352 -0.11492,-0.1224499 -0.21859,-0.2129939 -0.23038,-0.2012098 -0.0118,0.01179 -0.0214,0.07644 -0.0214,0.143678 0,0.09426 -0.0237,0.1473479 -0.10326,0.2318628 -0.15092,0.160219 -0.24332,0.1713512 -0.36756,0.04428 z m 0.768719,-1.138687 c 0.416121,-0.106428 0.72342,-0.2888739 1.06957,-0.6350298 0.33412,-0.3341141 0.50118,-0.6085693 0.63902,-1.0497741 0.062,-0.1985691 0.0744,-0.307094 0.0744,-0.6512819 0,-0.3692091 -0.01,-0.44259 -0.0914,-0.69196 -0.25255,-0.7704977 -0.867951,-1.3771988 -1.64002,-1.6168251 -0.337191,-0.1046535 -0.92119,-0.1047947 -1.28488,-3.12e-4 -1.06815,0.3068594 -1.76503,1.2185572 -1.76503,2.3090962 0,1.1174311 0.7192,2.0536411 1.795,2.3366261 0.314869,0.08283 0.87837,0.08257 1.203339,-5.473e-4 z m 0.0867,-0.7573391 c -0.0805,-0.08399 -0.27607,-0.287944 -0.4346,-0.4532309 -0.31679,-0.330302 -0.52924,-0.46568 -0.86779,-0.552985 -0.11161,-0.02878 -0.36531,-0.1246828 -0.56377,-0.2131119 -0.552391,-0.2461261 -0.67445,-0.4287311 -0.58281,-0.8718889 0.0884,-0.4273181 0.32958,-0.7310591 0.74119,-0.933318 0.67982,-0.3340436 1.413749,-0.3394761 2.07475,-0.015357 0.66226,0.3247368 1.01989,1.2493458 0.72464,1.8734558 -0.142361,0.3009279 -0.564681,0.6177118 -0.993011,0.7448659 l -0.172099,0.05109 0.178009,0.2275059 c 0.0979,0.1251278 0.178021,0.2428459 0.178021,0.261595 0,0.08469 -0.14669,0.023101 -0.28253,-0.1186209 z"
       id="path186" />
  </g>
</svg>
