<?xml version="1.0" encoding="UTF-8" standalone="no"?>
<svg
   xmlns:dc="http://purl.org/dc/elements/1.1/"
   xmlns:cc="http://creativecommons.org/ns#"
   xmlns:rdf="http://www.w3.org/1999/02/22-rdf-syntax-ns#"
   xmlns:svg="http://www.w3.org/2000/svg"
   xmlns="http://www.w3.org/2000/svg"
   xmlns:sodipodi="http://sodipodi.sourceforge.net/DTD/sodipodi-0.dtd"
   xmlns:inkscape="http://www.inkscape.org/namespaces/inkscape"
   width="180"
   height="100"
   viewBox="0 0 47.625001 26.458333"
   version="1.1"
   id="svg8"
   sodipodi:docname="about-martin.svg"
   inkscape:version="1.0.2 (e86c870879, 2021-01-15)">
  <defs
     id="defs2" />
  <sodipodi:namedview
     id="base"
     pagecolor="#ffffff"
     bordercolor="#666666"
     borderopacity="1.0"
     inkscape:pageopacity="0.0"
     inkscape:pageshadow="2"
     inkscape:zoom="0.0875"
     inkscape:cx="-3252.084"
     inkscape:cy="-2450.3675"
     inkscape:document-units="mm"
     inkscape:current-layer="layer1"
     inkscape:document-rotation="0"
     showgrid="false"
     units="px"
     inkscape:window-width="1856"
     inkscape:window-height="1016"
     inkscape:window-x="64"
     inkscape:window-y="27"
     inkscape:window-maximized="1" />
  <metadata
     id="metadata5">
    <rdf:RDF>
      <cc:Work
         rdf:about="">
        <dc:format>image/svg+xml</dc:format>
        <dc:type
           rdf:resource="http://purl.org/dc/dcmitype/StillImage" />
        <dc:title></dc:title>
      </cc:Work>
    </rdf:RDF>
  </metadata>
  <g
     inkscape:label="Calque 1"
     inkscape:groupmode="layer"
     id="layer1">
    <path
       style="fill:#000000;stroke-width:0.0388322"
       d="m 21.235895,26.436753 c -0.32309,-0.0657 -0.62101,-0.29588 -0.77847,-0.60154 -0.15644,-0.30369 -0.15753,-0.25846 0.0756,-3.14398 0.0638,-0.79023 0.18545,-2.24062 0.27023,-3.22307 0.2712,-3.1425 0.27801,-3.25929 0.29922,-5.1343 0.0196,-1.73386 0.0113,-1.99142 -0.0643,-1.99142 -0.0373,0 -0.80177,1.17836 -1.78237,2.74723 -0.65168,1.04262 -0.67928,1.11715 -0.4536,1.22477 0.18057,0.0861 0.21207,0.21696 0.0928,0.38529 -0.0498,0.0703 -0.27525,0.37248 -0.50092,0.67149 -0.77747,1.03009 -3.7835,5.68524 -3.98651,6.17352 -0.16087,0.38692 -0.24504,0.48124 -0.36963,0.41419 -0.10178,-0.0548 -0.86914,-1.20115 -1.01779,-1.52051 -0.15047,-0.32327 -0.14069,-0.65423 0.0289,-0.97729 0.15504,-0.29534 0.7063,-1.16273 1.73552,-2.73079 0.73863,-1.12532 1.03421,-1.61016 1.40947,-2.31198 0.21717,-0.40614 0.28211,-0.46736 0.53886,-0.50795 0.11106,-0.0175 0.23125,-0.063 0.26708,-0.10103 0.0982,-0.10414 2.83232,-4.46702 2.83232,-4.51953 0,-0.0596 -0.11224,-0.0396 -0.69588,0.12388 -1.0949,0.3067 -1.15291,0.31495 -2.36215,0.33552 -0.60336,0.0103 -1.09702,0.0335 -1.09702,0.0516 0,0.0181 0.0592,0.13116 0.13154,0.25126 0.0776,0.12883 0.12352,0.24902 0.11198,0.29315 -0.0279,0.10656 -0.31694,0.30786 -0.44209,0.30786 -0.0879,0 -0.14184,-0.0517 -0.32207,-0.3089 -0.11904,-0.16989 -0.27183,-0.37197 -0.33952,-0.44906 -0.15506,-0.1766 -0.45198,-0.32906 -0.64329,-0.33029 -0.39707,-0.003 -0.70217,-0.15357 -0.82706,-0.40934 -0.11555,-0.23667 -0.0997,-0.43372 0.0588,-0.7326 0.0748,-0.1409 0.13591,-0.28418 0.13591,-0.31839 0,-0.0907 -0.26215,-0.4332003 -0.35391,-0.4623203 -0.0549,-0.0174 -0.14938,0.0227 -0.31491,0.13387 -0.22397,0.15039 -0.38291,0.19292 -0.48229,0.12905 -0.0738,-0.0474 -0.44101,-0.61743 -0.44101,-0.68451 0,-0.0344 0.10343,-0.14282 0.22985,-0.24099 0.12642,-0.0982 0.24874,-0.22921 0.27183,-0.2912 0.0231,-0.062 0.0624,-0.1672 0.0874,-0.23379 0.0503,-0.13392 0.23605,-0.26687 0.37324,-0.26709 0.0487,-8e-5 0.15359,0.0287 0.233,0.0639 0.0868,0.0385 0.30702,0.0736 0.55246,0.0881 0.33263,0.0196 0.43518,0.0408 0.55465,0.11468 l 0.14658,0.0906 -0.0755,0.12224 c -0.0415,0.0672 -0.15133,0.18051 -0.244,0.25174 -0.24732,0.19009 -0.26109,0.25738 -0.10816,0.52836 0.16238,0.28771 0.35025,0.4758 0.57693,0.5776003 0.15256,0.0685 0.29561,0.0844 0.99369,0.11027 0.44851,0.0166 1.11039,0.0463 1.47083,0.0659 0.77018,0.0419 0.87129,0.0265 1.77159,-0.2705003 0.69839,-0.23038 1.04865,-0.37665 1.04828,-0.43777 -3e-4,-0.0369 -0.56386,-0.3865 -1.25914,-0.78101 -0.40428,-0.2294 -0.62834,-0.55423 -0.91075,-1.32034 -0.20936,-0.56795 -0.82225,-1.99952 -0.90508,-2.11406 l -0.0657,-0.0909 -0.18946,0.12157 c -0.2804,0.17993 -0.40709,0.21569 -0.57172,0.16136 -0.16385,-0.0541 -0.2529,-0.20269 -0.2529,-0.4221 0,-0.12501 0.0236,-0.17467 0.12569,-0.26404 0.36111,-0.31629 0.60448,-0.59091 0.65002,-0.73349 0.14422,-0.45154 0.24368,-0.52396 0.77473,-0.56413 0.45588,-0.0345 0.52333,-0.0905 0.56561,-0.46992 0.0351,-0.3145 0.12794,-0.52569 0.31226,-0.71002 0.29614,-0.29613 0.80478,-0.4013 1.06045,-0.21925 l 0.12037,0.0857 -0.27033,0.23266 c -0.33184,0.28561 -0.39298,0.45505 -0.24547,0.68019 0.12514,0.19097 0.40914,0.191 0.66794,7e-5 0.15881,-0.11716 0.34894,-0.19772 0.38398,-0.16269 0.0146,0.0146 0.0231,0.10869 0.0189,0.2091 -0.0163,0.39035 -0.34463,0.80308 -0.71915,0.90393 -0.15277,0.0411 -0.24824,0.0377 -0.68803,-0.0249 -0.14933,-0.0212 -0.18616,-0.0124 -0.25241,0.0609 -0.14945,0.16526 -0.10479,0.36379 0.30973,1.37674 0.56829,1.38871 0.74431,1.7698 0.88439,1.91466 0.16497,0.1706 1.94994,1.23542 2.51134,1.49812 l 0.25296,0.11838 1.32158,0.0165 c 0.82814,0.0103 1.42039,10e-4 1.58623,-0.0248 0.28442,-0.0444 0.68293,-0.25081 2.02118,-1.04668 0.80844,-0.48078 0.87773,-0.54665 1.1306,-1.07465 0.21012,-0.43874 0.91337,-2.15741 0.91337,-2.23218 0,-0.11026 -0.12819,-0.0195 -0.23181,0.16408 -0.17503,0.31014 -0.3118,0.42379 -0.53331,0.44315 -0.321,0.0281 -0.59401,-0.20559 -0.59401,-0.50835 0,-0.12099 0.20458,-0.65377 0.57255,-1.49103 0.17991,-0.40937 0.25114,-0.5307 0.3451,-0.58784 0.0666,-0.0405 0.21553,-0.22596 0.34059,-0.42416 0.13717,-0.2174 0.27305,-0.38359 0.35505,-0.43427 0.14485,-0.0895 0.14488,-0.0896 0.57413,-1.10249001 0.15314,-0.36134 0.30027,-0.66424 0.32697,-0.67309 0.11374,-0.0377 0.0307,0.26102 -0.2748,0.98851 -0.25212,0.60037001 -0.3198,0.80024001 -0.30729,0.90743001 0.009,0.0756 -0.0117,0.29814 -0.0456,0.49452 -0.0812,0.4706 -0.0771,0.72693 0.015,0.92979 l 0.0749,0.16503 h 0.27119 c 0.32279,0 0.39384,0.0238 0.6454,0.21578 0.17342,0.13237 0.21623,0.147 0.4453,0.15218 0.29381,0.007 0.49113,0.0931 0.54681,0.23954 0.0393,0.10337 -0.0136,0.25869 -0.38134,1.12031 -0.16971,0.39763 -0.25894,0.46602 -0.4862,0.37268 -0.0686,-0.0282 -0.16984,-0.0595 -0.22489,-0.0697 -0.1251,-0.023 -0.16705,0.0386 -0.36218,0.5321 -0.32258,0.81579 -0.84666,2.01675 -0.95379,2.18568 -0.13898,0.21914 -0.32531,0.35755 -1.04131,0.77348 -0.30501,0.17719 -0.60033,0.35844 -0.65627,0.40276 l -0.10169,0.0806 0.13203,0.0807 c 0.18673,0.11414 1.33325,0.5006103 1.71495,0.5780803 0.35396,0.0718 0.99863,0.0628 2.86681,-0.0404 1.03379,-0.0571 1.08232,-0.0683 1.30519,-0.3006003 0.11366,-0.11848 0.26846,-0.40991 0.23534,-0.44304 -0.008,-0.008 -0.10826,0.0635 -0.2236,0.15814 -0.11534,0.0946 -0.25981,0.18303 -0.32103,0.19648 -0.2226,0.0489 -0.41684,-0.11343 -0.41684,-0.34834 0,-0.0495 0.0706,-0.19285 0.15682,-0.31854 l 0.15682,-0.22853 -0.0252,-0.31629 -0.0252,-0.31629 0.13361,-0.14579 c 0.12666,-0.13821 0.14929,-0.14707 0.43554,-0.17048 0.3534,-0.0289 0.41009,-0.0772 0.41031,-0.34974 3e-4,-0.31168 0.22589,-0.55169 0.57044,-0.60679 0.33063,-0.0529 0.56173,0.11998 0.94462,0.70651 0.16831,0.25782 0.19341,0.3221 0.19336,0.49517 -1.5e-4,0.51243 -0.28581,0.63671 -0.67975,0.29576 -0.14368,-0.12436 -0.20957,-0.15512 -0.33219,-0.15512 -0.107,0 -0.15297,0.0167 -0.15297,0.0557 0,0.13351 0.0972,0.28617 0.29376,0.46136 0.30841,0.27488 0.313,0.26034 -0.3087,0.97796 -0.41066,0.4740203 -0.48988,0.6257803 -0.48988,0.9384403 0,0.29485 -0.056,0.4643 -0.20614,0.62369 -0.11001,0.11678 -0.22253,0.16616 -0.63219,0.27746 -0.24184,0.0657 -0.43646,0.22866 -0.8086,0.67707 -0.38891,0.46861 -0.53069,0.56233 -0.74411,0.49189 -0.30493,-0.10063 -0.31677,-0.35127 -0.0347,-0.73445 0.0954,-0.1296 0.17346,-0.24868 0.17347,-0.26464 0,-0.016 -0.48492,-0.029 -1.0776,-0.029 -1.19982,0 -1.22708,-0.003 -2.46428,-0.31322 -0.37824,-0.0947 -0.70747,-0.17218 -0.73162,-0.17218 -0.0241,0 0.0296,0.13394 0.11945,0.29764 0.12873,0.23455 1.59377,2.57437 2.42066,3.86601 0.16212,0.25326 0.24416,0.31055 0.4002,0.27951 0.0867,-0.0172 0.13198,10e-4 0.2139,0.0877 0.16204,0.17085 1.15717,1.76967 1.15767,1.85997 5.8e-4,0.10202 -0.0858,0.17945 -0.54321,0.4869 l -0.36891,0.24797 -0.42715,-0.004 c -0.47562,-0.004 -0.9979,-0.11959 -1.14048,-0.25243 -0.0832,-0.0775 -0.50652,-0.77103 -0.68184,-1.117 -0.1286,-0.25379 -0.12579,-0.33133 0.0166,-0.45821 0.0641,-0.0571 0.1165,-0.14147 0.1165,-0.18751 0,-0.0887 -2.1282,-3.53507 -2.35634,-3.8158 -0.2474,-0.30442 -0.24542,-0.31355 -0.24542,1.13153 0,1.67948 0.0482,2.53059 0.31019,5.47966 0.21305,2.39788 0.46669,5.76392 0.46607,6.18526 -5.8e-4,0.4268 -0.2258,0.78728 -0.62832,1.00584 -0.18387,0.0998 -0.8081,0.0995 -1.00922,-5.8e-4 -0.27802,-0.13831 -0.52232,-0.44642 -0.62014,-0.78213 -0.0189,-0.0647 -0.12088,-1.21849 -0.22674,-2.56403 -0.30886,-3.92571 -0.46347,-5.81588 -0.4867,-5.94992 -0.0119,-0.0688 -0.0598,-0.1518 -0.10643,-0.18445 -0.16997,-0.11905 -0.46002,-0.0477 -0.52869,0.13012 -0.0216,0.056 -0.0665,0.45124 -0.0998,0.8784 -0.26508,3.4053 -0.57131,7.20088 -0.6022,7.4639 -0.0426,0.36282 -0.13456,0.57121 -0.34484,0.78149 -0.26736,0.26736 -0.678,0.39077 -1.04923,0.31532 z m -6.86633,-3.2407 c 0.11925,-0.1645 1.53089,-2.3288 2.8487,-4.36756 0.67246,-1.04036 0.77959,-1.226 0.72018,-1.24797 -0.0384,-0.0142 -0.42396,-0.0904 -0.85682,-0.16929 -0.71897,-0.13106 -0.7948,-0.13837 -0.87698,-0.0845 -0.1143,0.0749 -2.7909,4.1871 -2.85635,4.38837 -0.0268,0.0825 -0.0412,0.24163 -0.0319,0.35366 0.0145,0.17441 0.0606,0.27134 0.32117,0.6744 0.16735,0.25889 0.33811,0.50703 0.37947,0.55142 0.10633,0.11413 0.22175,0.0819 0.35251,-0.0985 z m 15.19986,-6.11351 c 0.17295,-0.12529 0.22064,-0.18213 0.17537,-0.20907 -0.0164,-0.01 -0.19167,-0.0303 -0.38957,-0.0457 l -0.35983,-0.028 0.042,0.11096 c 0.0592,0.15619 0.19074,0.2857 0.29022,0.2857 0.0465,0 0.15526,-0.0513 0.24176,-0.11393 z m -12.43617,-0.39066 c 0.0323,-0.0523 -0.16237,-0.30177 -0.2596,-0.33263 -0.0564,-0.0179 -0.11481,0.0108 -0.21013,0.10318 -0.0726,0.0704 -0.13203,0.14012 -0.13203,0.15497 0,0.0301 0.31108,0.10136 0.47341,0.10849 0.0575,0.003 0.11523,-0.0128 0.12835,-0.034 z m 13.33499,-0.10788 0.12895,-0.10766 -0.0605,-0.14475 c -0.0333,-0.0796 -0.0841,-0.14476 -0.11297,-0.14476 -0.06,0 -0.2233,0.31309 -0.2233,0.4282 0,0.10993 0.1149,0.0966 0.2678,-0.031 z m 3.36906,-7.9908403 c 0.0714,-0.0545 0.12987,-0.11554 0.12987,-0.13567 0,-0.0377 -0.30084,-0.2701 -0.34965,-0.2701 -0.0519,0 -0.23284,0.19062 -0.23284,0.24532 0,0.0921 0.15603,0.2595 0.24186,0.2595 0.0445,0 0.13933,-0.0446 0.21076,-0.0991 z m -0.87279,13.7412603 c -2.84664,-2.79205 -3.82968,-3.77462 -3.80306,-3.80124 0.0969,-0.0969 0.57896,-0.0773 1.14573,0.0464 0.38918,0.085 0.56928,0.0366 1.04356,-0.28054 0.20422,-0.13654 0.4044,-0.24826 0.44485,-0.24826 0.0425,0 0.11306,0.0615 0.16707,0.14562 0.81004,1.26112 3.52721,5.6719 3.54315,5.7516 0.0301,0.15047 -0.19861,0.35477 -0.39717,0.35477 -0.12896,0 -0.25899,-0.11937 -2.14413,-1.96835 z M 23.317955,8.4599627 c -0.78767,-0.14127 -1.40464,-0.66095 -1.66581,-1.40311 -0.13016,-0.36987 -0.12406,-0.99528 0.0135,-1.38252 0.53725,-1.5126 2.57569,-1.88927 3.56765,-0.65924 0.86619,1.07408 0.55478,2.6412 -0.64408,3.24131 -0.36312,0.18177 -0.90711,0.26887 -1.27124,0.20356 z"
       id="path226" />
  </g>
</svg>
