<?xml version="1.0" encoding="UTF-8" standalone="no"?>
<svg
   width="135.46666mm"
   height="135.46667mm"
   viewBox="0 0 135.46666 135.46667"
   version="1.1"
   id="svg8"
   inkscape:export-filename="../c0a00e91/logo512.png"
   inkscape:export-xdpi="99.878922"
   inkscape:export-ydpi="99.878922"
   inkscape:version="1.2 (56b05e47e7, 2022-06-09, custom)"
   sodipodi:docname="wishlist-logo.svg"
   xmlns:inkscape="http://www.inkscape.org/namespaces/inkscape"
   xmlns:sodipodi="http://sodipodi.sourceforge.net/DTD/sodipodi-0.dtd"
   xmlns="http://www.w3.org/2000/svg"
   xmlns:svg="http://www.w3.org/2000/svg"
   xmlns:rdf="http://www.w3.org/1999/02/22-rdf-syntax-ns#"
   xmlns:cc="http://creativecommons.org/ns#"
   xmlns:dc="http://purl.org/dc/elements/1.1/">
  <defs
     id="defs2" />
  <sodipodi:namedview
     id="base"
     pagecolor="#ffffff"
     bordercolor="#666666"
     borderopacity="1.0"
     inkscape:pageopacity="0.0"
     inkscape:pageshadow="2"
     inkscape:zoom="0.98994949"
     inkscape:cx="68.690373"
     inkscape:cy="323.75389"
     inkscape:document-units="mm"
     inkscape:current-layer="layer1"
     inkscape:document-rotation="0"
     showgrid="false"
     fit-margin-top="0"
     fit-margin-left="0"
     fit-margin-right="0"
     fit-margin-bottom="0"
     inkscape:window-width="1854"
     inkscape:window-height="1016"
     inkscape:window-x="0"
     inkscape:window-y="0"
     inkscape:window-maximized="1"
     inkscape:showpageshadow="0"
     inkscape:pagecheckerboard="1"
     inkscape:deskcolor="#d1d1d1" />
  <metadata
     id="metadata5">
    <rdf:RDF>
      <cc:Work
         rdf:about="">
        <dc:format>image/svg+xml</dc:format>
        <dc:type
           rdf:resource="http://purl.org/dc/dcmitype/StillImage" />
      </cc:Work>
    </rdf:RDF>
  </metadata>
  <g
     inkscape:label="Calque 1"
     inkscape:groupmode="layer"
     id="layer1"
     transform="translate(-173.6192,-234.67688)">
    <g
       id="g65"
       transform="matrix(2.1174746,0,0,2.1054846,7.6082615,-90.21241)">
      <path
         id="rect892"
         style="fill:#2d3142;stroke-width:0.947404;stroke-linecap:round;stroke-linejoin:round;stroke-miterlimit:4;stroke-dasharray:none;paint-order:stroke fill markers"
         d="m 91.559678,154.30618 h 37.657112 c 7.29021,0 13.15923,5.90244 13.15923,13.23417 v 37.87156 c 0,7.33173 -5.86902,13.23417 -13.15923,13.23417 H 91.559678 c -7.290218,0 -13.159238,-5.90244 -13.159238,-13.23417 v -37.87156 c 0,-7.33173 5.86902,-13.23417 13.159238,-13.23417 z" />
      <path
         style="fill:#ffffff;fill-opacity:1;stroke:#ffffff;stroke-width:0.75;stroke-linecap:round;stroke-linejoin:round;stroke-miterlimit:4;stroke-dasharray:none;stroke-opacity:1;paint-order:stroke fill markers"
         d="m 103.17538,191.98558 c -1.71764,5.34118 -3.4424,9.83444 -5.408043,15.10822 -0.480986,1.29047 -1.027828,3.10974 -1.500891,4.40294 -0.144868,0.39618 -0.692627,1.02514 -1.245258,0.87723 -0.432206,-0.11559 -0.944208,-1.87571 -1.06674,-2.23783 -1.664932,-5.15283 -2.934878,-9.26704 -4.443391,-14.00411 -0.35157,-1.05775 -1.181056,-3.43307 -1.333385,-4.49677 -0.101839,-0.71019 2.174044,-0.66053 2.658345,-0.31935 1.706723,4.51368 3.249057,9.51471 4.579504,14.03894 2.418494,-6.0952 4.541396,-12.88743 6.037499,-18.23963 0.37411,-1.35125 -1.0129,-3.15254 -1.41054,-4.45944 -0.177042,-0.58177 -0.09198,-1.52576 0.74242,-1.62893 0.6022,-0.0745 1.1167,0.56939 1.47276,0.96693 1.06049,1.18355 1.87108,2.5885 2.36845,4.07968 2.22522,6.65324 4.25177,12.58134 6.55995,19.09674 0,0 10.05153,-24.81801 14.47627,-35.70069 1.96199,-4.41656 2.2371,-4.97167 3.91083,-7.98356 0.37882,-0.68165 1.84731,-2.16569 2.73903,-1.41507 0.82115,0.69111 -0.27604,2.58852 -1.15235,4.69053 -1.52323,3.81967 -2.83235,6.76306 -4.35572,10.58288 -3.83003,9.60408 -7.76337,19.16721 -11.59341,28.77144 -0.92267,2.31395 -1.82698,4.63641 -2.80073,6.92926 -0.25875,0.60917 -0.58015,1.95522 -1.3783,2.03871 -0.57276,0.0598 -0.86065,-0.54199 -1.03666,-0.98441 -2.28518,-6.60902 -4.21785,-12.47947 -6.81964,-20.11371 z"
         id="path915-3"
         sodipodi:nodetypes="csscccscccscccccsccccsscc" />
    </g>
  </g>
</svg>
